/* XPM */
static char *pushpin[] = {
/* columns rows colors chars-per-pixel */
"21 21 129 2",
"   c gray100",
".  c #FEFEFF",
"X  c #FCFCFD",
"o  c gray99",
"O  c #FBFAFC",
"+  c gray98",
"@  c #FAF9FC",
"#  c #F9F9F9",
"$  c #F8F7FB",
"%  c gray97",
"&  c #F6F6F6",
"*  c #D4CCE6",
"=  c LightGray",
"-  c #BBBBBB",
";  c gray71",
":  c #B4B4B4",
">  c gray69",
",  c #AE8CFF",
"<  c gray66",
"1  c #A5A5A5",
"2  c #A490D1",
"3  c #9D9D9D",
"4  c #9D73FF",
"5  c #9B70FF",
"6  c #989898",
"7  c #986CFF",
"8  c #979797",
"9  c #976BFF",
"0  c #929292",
"q  c #8E8E8E",
"w  c gray53",
"e  c #848484",
"r  c gray51",
"t  c gray50",
"y  c gray49",
"u  c gray47",
"i  c #763CFF",
"p  c #7439FF",
"a  c gray45",
"s  c #717171",
"d  c #6D6D6D",
"f  c #6C6C6E",
"g  c #6C54A4",
"h  c #6A6A6A",
"j  c gray40",
"k  c #66636C",
"l  c #665490",
"z  c #65626A",
"x  c #6523FF",
"c  c #622EDD",
"v  c #611AC8",
"b  c #5F2ADD",
"n  c #5D5D5D",
"m  c #5B5B5B",
"M  c #520DF6",
"N  c #4F08F6",
"B  c #4C4C4C",
"V  c #4C06DF",
"C  c #4C00FF",
"Z  c #4B4754",
"A  c #4900F6",
"S  c gray27",
"D  c #452F79",
"F  c #452199",
"G  c #44316F",
"H  c #3D3157",
"J  c #3D00CE",
"K  c #3C3C3C",
"L  c #39216F",
"P  c #3500B2",
"I  c #2E009C",
"U  c #2D2D2D",
"Y  c #29008A",
"T  c #280077",
"R  c #272727",
"E  c #240078",
"W  c gray13",
"Q  c #1D0060",
"!  c #1B005A",
"~  c gray10",
"^  c #181818",
"/  c #17004A",
"(  c #16004A",
")  c black",
"_  c black",
"`  c black",
"'  c black",
"]  c black",
"[  c black",
"{  c black",
"}  c black",
"|  c black",
" . c black",
".. c black",
"X. c black",
"o. c black",
"O. c black",
"+. c black",
"@. c black",
"#. c black",
"$. c black",
"%. c black",
"&. c black",
"*. c black",
"=. c black",
"-. c black",
";. c black",
":. c black",
">. c black",
",. c black",
"<. c black",
"1. c black",
"2. c black",
"3. c black",
"4. c black",
"5. c black",
"6. c black",
"7. c black",
"8. c black",
"9. c black",
"0. c black",
"q. c black",
"w. c black",
"e. c black",
"r. c black",
"t. c black",
"y. c black",
"u. c black",
"i. c None",
/* pixels */
"i.i.i.i.i.i.i.i.i.i.i.i.i.i.i.i.i.i.i.i.i.",
"i.i.i.i.i.i.i.i.i.i.i.i.i.i.i.i.i.i.i.i.i.",
"i.i.i.i.i.i.i.i.i.i.i.i.i.i.i.i.i.i.i.i.i.",
"i.i.i.i.i.i.i.i.i.i.i.i.@ i.i.i.i.i.i.i.i.",
"i.i.i.i.i.i.5 N b b N 5 i.$ i.i.i.i.i.i.i.",
"i.i.i.i.i.p J A A A A J i i.. i.i.i.i.i.i.",
"i.i.i.i.4 J A C x C A J I 7 i.i.i.i.i.i.i.",
"i.i.i.i.M A C 9 9 C J P I F i.i.i.i.i.i.i.",
"i.i.i.i.c A C x x J P I Y L i.i.i.i.i.i.i.",
"i.i.i.i.c J A J J P I Y Q L @ i.i.i.i.i.i.",
"i.i.i.i.M P P P P I Y ! ( T f d t 6 ; i.i.",
"i.i.i.i.4 I I I Y E Q ( / v j j j j e > i.",
"i.i.i.X X p E E ! ( / H D z j j j j j q i.",
"i.i.& i.* ) , g l l G V j j j j j j j a i.",
"i.i.i.i.B Z i.i.i.O k j j j j j j j j a i.",
"i.+ i.u ~ < i.i.i.i.y j j j j j j j j q i.",
"% i.= W K - i.i.: 3 r h j j j j j j e > i.",
"i.# U R 1 3 w s j s w 8 0 t d d t 6 ; i.i.",
"o S ~ n j s w 3 : i.i.i.i.i.i.i.i.i.i.i.i.",
"j ^ m 3 : i.i.i.i.i.i.i.i.i.i.i.i.i.i.i.i.",
"i.i.i.i.i.i.i.i.i.i.i.i.i.i.i.i.i.i.i.i.i."
};
